<svg width="41" height="40" viewBox="0 0 41 40" fill="none" xmlns="http://www.w3.org/2000/svg">
<g clip-path="url(#clip0_273_11)">
<path d="M20.4802 0C9.17072 0 0 9.16912 0 20.4802C0 29.5288 5.86816 37.2058 14.0056 39.9138C15.0291 40.1034 15.405 39.4694 15.405 38.9285C15.405 38.4402 15.3858 36.8269 15.3771 35.1157C9.67952 36.3544 8.47728 32.6992 8.47728 32.6992C7.5456 30.332 6.2032 29.7024 6.2032 29.7024C4.34512 28.4314 6.34336 28.4576 6.34336 28.4576C8.39984 28.6019 9.48272 30.568 9.48272 30.568C11.3094 33.6989 14.2739 32.7938 15.4426 32.2704C15.6264 30.9469 16.1571 30.0432 16.7429 29.5318C12.1939 29.0141 7.412 27.2579 7.412 19.4106C7.412 17.1746 8.212 15.3475 9.52208 13.9133C9.30944 13.3974 8.60848 11.3146 9.72048 8.49344C9.72048 8.49344 11.4403 7.94304 15.3541 10.5928C16.9877 10.139 18.7397 9.91152 20.4802 9.90368C22.2206 9.91152 23.9741 10.1389 25.6107 10.5928C29.5197 7.9432 31.2371 8.4936 31.2371 8.4936C32.3518 11.3144 31.6506 13.3976 31.4379 13.9133C32.751 15.3475 33.5456 17.1746 33.5456 19.4106C33.5456 27.2766 28.7546 29.0086 24.1941 29.5157C24.9286 30.1512 25.5832 31.3976 25.5832 33.3083C25.5832 36.0485 25.5595 38.2539 25.5595 38.9285C25.5595 39.4736 25.9282 40.1122 26.9662 39.9109C35.0992 37.2 40.96 29.5259 40.96 20.4803C40.96 9.16912 31.7906 0 20.4802 0ZM7.67056 29.1744C7.62544 29.2762 7.46528 29.3067 7.31952 29.2368C7.17088 29.1701 7.08752 29.0314 7.13552 28.9293C7.17968 28.8245 7.34016 28.7952 7.48832 28.8654C7.63712 28.9323 7.72192 29.0723 7.67056 29.1744ZM8.67792 30.0733C8.58032 30.1638 8.38928 30.1218 8.25968 29.9787C8.12576 29.836 8.10064 29.645 8.19968 29.5531C8.30048 29.4626 8.4856 29.505 8.61984 29.6477C8.75392 29.7922 8.77984 29.9818 8.67792 30.0733ZM9.36912 31.2234C9.24352 31.3106 9.0384 31.2288 8.91152 31.0467C8.78608 30.8646 8.78608 30.6462 8.91424 30.5587C9.04144 30.4712 9.24352 30.5499 9.372 30.7307C9.49712 30.9158 9.49712 31.1342 9.36896 31.2235L9.36912 31.2234ZM10.5378 32.5554C10.4256 32.6792 10.1864 32.6459 10.0114 32.477C9.83232 32.3118 9.78256 32.0776 9.8952 31.9538C10.0088 31.8296 10.2493 31.8645 10.4256 32.0322C10.6032 32.197 10.6576 32.433 10.5378 32.5554ZM12.0485 33.005C11.9989 33.1654 11.7685 33.2384 11.5366 33.1702C11.305 33.1 11.1534 32.9122 11.2002 32.7501C11.2483 32.5885 11.4797 32.5126 11.7133 32.5856C11.9446 32.6554 12.0966 32.8418 12.0485 33.005ZM13.7675 33.1958C13.7733 33.3646 13.5766 33.5046 13.3331 33.5078C13.0883 33.5133 12.8901 33.3766 12.8874 33.2102C12.8874 33.0398 13.0797 32.9011 13.3246 32.897C13.5682 32.8922 13.7675 33.0278 13.7675 33.1958ZM15.4563 33.131C15.4854 33.2958 15.3163 33.4651 15.0744 33.5102C14.8368 33.5536 14.6166 33.4518 14.5864 33.2885C14.557 33.1195 14.7293 32.9502 14.9666 32.9066C15.2088 32.8645 15.4254 32.9635 15.4563 33.131Z" fill="white"/>
</g>
<defs>
<clipPath id="clip0_273_11">
<rect width="40.96" height="40" fill="white"/>
</clipPath>
</defs>
</svg>
